HIERARCHY
ROOT Hips
{
	OFFSET -13.091600 -28.302996 44.698402
	CHANNELS 6 Xposition Yposition Zposition Zrotation Xrotation Yrotation
	JOINT Chest
	{
		OFFSET -0.673000 0.623899 5.369202
		CHANNELS 6 Xposition Yposition Zposition Zrotation Xrotation Yrotation
		JOINT Chest2
		{
			OFFSET 0.000000 0.000000 4.415001
			CHANNELS 6 Xposition Yposition Zposition Zrotation Xrotation Yrotation
			JOINT Neck
			{
				OFFSET 0.000000 0.000002 10.273300
				CHANNELS 6 Xposition Yposition Zposition Zrotation Xrotation Yrotation
				JOINT Head
				{
					OFFSET 0.000000 0.000000 2.173897
					CHANNELS 6 Xposition Yposition Zposition Zrotation Xrotation Yrotation
					End Site
					{
						OFFSET 0.000000 0.000000 9.961800
					}
				}
			}
			JOINT LeftCollar
			{
				OFFSET 2.359900 -0.565201 5.928101
				CHANNELS 6 Xposition Yposition Zposition Zrotation Xrotation Yrotation
				JOINT LeftShoulder
				{
					OFFSET 5.443700 0.000000 0.000000
					CHANNELS 6 Xposition Yposition Zposition Zrotation Xrotation Yrotation
					JOINT LeftElbow
					{
						OFFSET 0.000000 0.000000 -10.615799
						CHANNELS 6 Xposition Yposition Zposition Zrotation Xrotation Yrotation
						JOINT LeftWrist
						{
							OFFSET 0.000000 -0.000002 -13.110302
							CHANNELS 6 Xposition Yposition Zposition Zrotation Xrotation Yrotation
							End Site
							{
								OFFSET 0.000000 0.000000 -2.173901
							}
						}
					}
				}
			}
			JOINT RightCollar
			{
				OFFSET -2.636600 -1.718800 6.889698
				CHANNELS 6 Xposition Yposition Zposition Zrotation Xrotation Yrotation
				JOINT RightShoulder
				{
					OFFSET -4.139101 0.000000 0.000000
					CHANNELS 6 Xposition Yposition Zposition Zrotation Xrotation Yrotation
					JOINT RightElbow
					{
						OFFSET 0.000000 0.000000 -10.471802
						CHANNELS 6 Xposition Yposition Zposition Zrotation Xrotation Yrotation
						JOINT RightWrist
						{
							OFFSET 0.000000 0.000000 -12.281898
							CHANNELS 6 Xposition Yposition Zposition Zrotation Xrotation Yrotation
							End Site
							{
								OFFSET 0.000000 -0.000002 -2.173901
							}
						}
					}
				}
			}
		}
	}
	JOINT LeftHip
	{
		OFFSET 2.273400 0.176701 -2.518002
		CHANNELS 6 Xposition Yposition Zposition Zrotation Xrotation Yrotation
		JOINT LeftKnee
		{
			OFFSET 0.000000 -0.000002 -20.456402
			CHANNELS 6 Xposition Yposition Zposition Zrotation Xrotation Yrotation
			JOINT LeftAnkle
			{
				OFFSET 0.000000 -0.000002 -16.635300
				CHANNELS 6 Xposition Yposition Zposition Zrotation Xrotation Yrotation
				End Site
				{
					OFFSET 0.000000 -8.812399 0.000001
				}
			}
		}
	}
	JOINT RightHip
	{
		OFFSET -1.914800 0.018101 -2.699299
		CHANNELS 6 Xposition Yposition Zposition Zrotation Xrotation Yrotation
		JOINT RightKnee
		{
			OFFSET 0.000000 -0.000002 -20.148901
			CHANNELS 6 Xposition Yposition Zposition Zrotation Xrotation Yrotation
			JOINT RightAnkle
			{
				OFFSET 0.000000 -0.000002 -16.838301
				CHANNELS 6 Xposition Yposition Zposition Zrotation Xrotation Yrotation
				End Site
				{
					OFFSET 0.000000 -8.328398 0.000001
				}
			}
		}
	}
}
MOTION
Frames: 9
Frame Time: 0.041667
-25.169199 -23.483295 24.126602 -31.319569 7.123783 -11.326615 -0.673001 0.623897 5.369205 -31.650335 1.279048 9.695350 0.000003 -0.000001 4.415011 8.910053 -4.903499 -0.741727 -0.000001 -0.000001 10.273305 3.194588 -6.288932 -4.006974 0.000001 -0.000006 2.173903 0.593628 -4.265594 -1.044894 2.359900 -0.565201 5.928095 -22.373770 8.006143 13.427059 5.443703 0.000000 0.000004 -21.194239 -21.087381 -73.528564 -0.000009 0.000005 -10.615800 117.134370 10.611279 46.844016 -0.000001 0.000002 -13.110294 -87.438306 2.653182 -47.654455 -2.636597 -1.718802 6.889699 13.180710 16.670306 -6.135649 -4.139097 0.000001 -0.000005 258.530720 -162.267714 296.414118 -0.000002 -0.000003 -10.471802 18.099170 -23.361067 -4.510233 0.000003 0.000005 -12.281894 58.254280 18.037700 55.142095 2.273391 0.176700 -2.518001 -17.830795 -170.341790 -112.296226 -0.000001 -0.000006 -20.456402 -235.331326 -36.314572 76.318696 -0.000006 -0.000012 -16.635292 108.820821 23.515189 64.498658 -1.914798 0.018103 -2.699298 42.212751 195.255451 64.979100 0.000005 -0.000002 -20.148905 -173.458596 0.564387 -112.561156 -0.000000 -0.000003 -16.838303 319.243834 15.050785 -22.200061
-24.940201 -23.434998 24.025496 -31.233260 7.853877 -11.060804 -0.672998 0.623894 5.369210 -32.736270 1.435771 9.202674 0.000002 -0.000002 4.414999 9.227402 -4.855497 -0.743428 -0.000000 0.000001 10.273299 2.459607 -6.950452 -4.528671 -0.000006 -0.000003 2.173896 0.333157 -4.419874 -1.054531 2.359898 -0.565199 5.928105 -22.869072 8.241681 12.355296 5.443701 -0.000002 0.000011 -21.158987 -21.034105 -72.937705 -0.000005 0.000006 -10.615797 118.308548 12.073503 47.999947 -0.000007 0.000004 -13.110302 -89.100624 2.910391 -46.865667 -2.636605 -1.718804 6.889703 12.678158 16.347713 -6.453509 -4.139099 -0.000002 -0.000007 258.536539 -161.963784 296.974357 0.000004 0.000000 -10.471796 18.433398 -23.057880 -4.231044 -0.000004 0.000006 -12.281901 57.182470 18.117768 55.473659 2.273393 0.176694 -2.518002 -18.478133 -170.563593 -111.444843 -0.000001 -0.000007 -20.456398 -233.455593 -35.260111 78.070059 -0.000005 -0.000008 -16.635292 107.770461 23.301682 64.078424 -1.914796 0.018101 -2.699300 41.803883 194.881047 64.180057 0.000008 -0.000001 -20.148911 -173.905345 1.012768 -112.340226 -0.000003 -0.000002 -16.838297 319.774485 15.584414 -21.986457
-24.700296 -23.385096 23.919500 -31.053496 8.313978 -10.777009 -0.673000 0.623901 5.369206 -33.780886 1.905279 8.817031 0.000001 -0.000004 4.415002 9.495746 -4.831144 -0.747231 -0.000001 -0.000001 10.273313 1.593277 -7.577190 -5.030779 -0.000004 -0.000008 2.173895 0.100378 -4.586398 -1.133413 2.359899 -0.565203 5.928106 -23.433185 8.562070 11.736484 5.443702 -0.000006 0.000010 -21.342746 -20.841265 -72.832083 0.000000 0.000005 -10.615795 119.429601 13.602668 49.149932 -0.000003 -0.000001 -13.110297 -90.588505 3.073977 -47.108484 -2.636606 -1.718803 6.889704 12.136812 16.017820 -6.772053 -4.139093 -0.000000 -0.000006 258.560554 -161.625963 297.561481 -0.000007 -0.000004 -10.471794 18.802157 -22.671688 -3.979665 0.000005 0.000003 -12.281901 56.059536 18.198320 55.819957 2.273398 0.176697 -2.518003 -19.211311 -170.580518 -110.567410 0.000000 -0.000005 -20.456396 -231.675099 -34.181904 79.785134 -0.000003 -0.000011 -16.635294 106.690075 23.064232 63.612639 -1.914798 0.018105 -2.699305 41.294781 194.734157 63.579936 0.000005 -0.000000 -20.148909 -174.405206 1.466650 -112.101402 0.000001 -0.000004 -16.838303 320.277078 16.115196 -21.759661
-24.452099 -23.331999 23.813000 -30.860697 8.806053 -10.508486 -0.672998 0.623899 5.369206 -34.645031 2.413007 8.438088 0.000000 0.000001 4.415007 9.716538 -4.813654 -0.751362 -0.000003 -0.000000 10.273310 0.566785 -8.165736 -5.534500 -0.000000 -0.000005 2.173902 -0.094243 -4.751373 -1.238661 2.359899 -0.565203 5.928109 -24.110756 9.000363 11.139445 5.443696 0.000000 0.000003 -21.595576 -20.560130 -72.832684 -0.000004 0.000005 -10.615797 120.691970 15.263444 50.302171 -0.000002 0.000004 -13.110298 -92.149490 3.249715 -47.300713 -2.636603 -1.718804 6.889711 11.660968 15.749323 -7.142876 -4.139094 -0.000004 0.000003 258.572439 -161.238063 298.282093 -0.000001 -0.000002 -10.471793 19.221747 -22.205847 -3.755507 0.000000 0.000005 -12.281898 54.852273 18.241948 56.123173 2.273402 0.176699 -2.518006 -19.947294 -170.555192 -109.646891 -0.000000 -0.000006 -20.456400 -229.864880 -33.085846 81.460190 -0.000002 -0.000008 -16.635300 105.592559 22.804151 63.128959 -1.914794 0.018096 -2.699304 40.780635 194.659968 62.960773 0.000005 -0.000003 -20.148907 -174.948506 1.972733 -111.851212 -0.000002 -0.000005 -16.838299 320.770518 16.632848 -21.513802
-24.193502 -23.275196 23.704504 -30.680650 9.309943 -10.211458 -0.672997 0.623897 5.369204 -35.201122 3.039948 8.003012 0.000004 -0.000005 4.415008 9.841411 -4.797650 -0.753884 -0.000004 -0.000007 10.273294 -0.729100 -8.672008 -5.942960 -0.000007 -0.000006 2.173903 -0.266802 -4.989336 -1.426570 2.359897 -0.565211 5.928102 -24.892097 9.526901 10.573532 5.443697 0.000001 0.000011 -21.990865 -20.083082 -72.933573 0.000008 0.000004 -10.615794 122.155912 17.041416 51.469625 -0.000008 0.000006 -13.110295 -93.749517 3.440566 -47.411584 -2.636605 -1.718807 6.889703 11.123601 15.418821 -7.514600 -4.139090 -0.000003 -0.000005 258.630440 -160.892073 299.067182 -0.000005 0.000003 -10.471792 19.647966 -21.530170 -3.635816 0.000004 -0.000004 -12.281905 53.620943 18.292923 56.578644 2.273397 0.176696 -2.518005 -21.368426 -169.196340 -108.809278 -0.000000 -0.000010 -20.456396 -226.429678 -31.081513 83.502450 -0.000005 -0.000009 -16.635298 103.752875 22.470081 62.510718 -1.914798 0.018103 -2.699306 40.177328 195.199088 62.400369 0.000005 -0.000007 -20.148907 -175.915607 3.041983 -111.576037 -0.000002 -0.000002 -16.838299 321.578065 17.157618 -21.076924
-23.923798 -23.214600 23.595905 -30.487451 9.815264 -9.916309 -0.673003 0.623901 5.369205 -35.542894 3.739621 7.568114 0.000002 -0.000006 4.415006 9.897761 -4.783651 -0.756019 -0.000005 -0.000003 10.273305 -2.304333 -9.117205 -6.353963 -0.000006 -0.000004 2.173887 -0.295064 -5.253851 -1.678056 2.359898 -0.565204 5.928100 -25.835477 10.209212 10.072537 5.443698 -0.000004 0.000001 -24.009587 -14.974903 -73.527997 0.000003 0.000003 -10.615792 128.478959 18.670223 52.643881 -0.000001 0.000006 -13.110301 -95.310174 3.636832 -47.464108 -2.636603 -1.718803 6.889701 10.700247 15.155109 -8.036992 -4.139100 0.000004 -0.000010 258.546894 -160.566655 299.978493 0.000000 0.000003 -10.471792 20.119214 -20.839913 -3.468027 -0.000000 -0.000003 -12.281897 52.330030 18.356034 57.073228 2.273397 0.176706 -2.518005 -21.718149 -169.643567 -107.693170 -0.000003 -0.000007 -20.456396 -225.385191 -30.476840 84.888036 -0.000008 -0.000008 -16.635296 103.039189 22.246708 61.944447 -1.914799 0.018101 -2.699307 39.765440 194.904735 61.777948 0.000003 -0.000004 -20.148903 -176.241325 3.468904 -111.329099 -0.000002 -0.000002 -16.838299 321.974735 17.652530 -20.795179
-23.640799 -23.150496 23.487503 -30.848679 10.022222 -9.514531 -0.673002 0.623898 5.369209 -35.336154 4.829765 7.385680 0.000001 0.000002 4.415006 9.981809 -4.789271 -0.761875 -0.000001 0.000005 10.273302 -4.068293 -9.522806 -6.817397 -0.000002 -0.000008 2.173898 -0.221743 -5.534478 -1.948357 2.359899 -0.565200 5.928101 -26.760495 10.925976 9.480011 5.443694 -0.000001 0.000001 -23.705322 -16.660561 -73.601101 0.000001 0.000001 -10.615799 127.511941 20.640321 53.904772 -0.000006 0.000007 -13.110301 -96.850805 3.836532 -47.531532 -2.636603 -1.718800 6.889701 10.343812 14.938061 -8.594088 -4.139099 0.000002 -0.000004 258.341059 -160.129632 300.964827 0.000001 0.000000 -10.471799 16.102355 -19.825780 -4.856352 0.000004 0.000003 -12.281892 55.121467 18.380758 57.755950 2.273398 0.176699 -2.518001 -21.614735 -169.669125 -106.676647 -0.000002 -0.000011 -20.456400 -224.228868 -29.669867 86.318599 -0.000008 -0.000010 -16.635296 102.145964 22.004199 61.263006 -1.914794 0.018105 -2.699303 39.960722 194.898820 61.435216 0.000003 -0.000008 -20.148903 -176.487485 3.989102 -111.071047 0.000005 -0.000004 -16.838301 322.418014 18.124961 -20.438627
-23.343597 -23.082298 23.381798 -30.710552 10.475266 -9.283826 -0.672997 0.623898 5.369211 -35.504406 5.700467 7.127223 0.000004 -0.000000 4.415007 10.084253 -4.772967 -0.765909 -0.000005 -0.000000 10.273292 -6.053921 -9.947009 -7.346878 -0.000003 -0.000003 2.173896 -0.044060 -5.851775 -2.245260 2.359893 -0.565201 5.928097 -27.646895 11.670422 8.810424 5.443703 -0.000003 0.000005 -23.282735 -18.459771 -73.592932 0.000005 0.000001 -10.615793 126.256662 22.685162 55.400870 -0.000006 -0.000000 -13.110295 -98.405541 4.055198 -47.470819 -2.636605 -1.718800 6.889698 10.040851 14.742811 -9.253860 -4.139104 0.000007 0.000004 258.052033 -159.570308 302.071154 -0.000001 0.000001 -10.471798 14.719572 -19.252440 -5.204574 0.000002 0.000003 -12.281894 55.438569 18.454003 58.383200 2.273399 0.176702 -2.517998 -21.945287 -169.992849 -105.552500 -0.000004 -0.000009 -20.456394 -223.027547 -28.892960 87.765219 -0.000005 -0.000010 -16.635294 101.250765 21.775526 60.550447 -1.914797 0.018101 -2.699300 39.689365 194.683505 60.828388 0.000006 -0.000002 -20.148903 -176.683812 4.485305 -110.767377 -0.000002 -0.000004 -16.838301 322.849655 18.668075 -20.130202
-23.028500 -23.011496 23.276604 -30.564393 10.891549 -9.095310 -0.673000 0.623898 5.369206 -35.615277 6.592139 6.938806 0.000002 0.000003 4.414997 10.183216 -4.698095 -0.687292 -0.000003 -0.000000 10.273302 -8.174775 -10.320403 -8.026590 -0.000001 -0.000000 2.173902 0.177652 -6.218663 -2.599828 2.359896 -0.565201 5.928096 -28.464217 12.506644 8.025849 5.443700 -0.000002 0.000001 -22.941046 -20.415309 -73.595001 -0.000004 0.000003 -10.615801 124.733570 24.646970 56.957945 -0.000004 -0.000002 -13.110304 -99.922963 4.288139 -47.286725 -2.636601 -1.718801 6.889695 9.804178 14.582377 -10.077651 -4.139098 0.000012 -0.000001 257.678531 -158.775629 303.255345 -0.000000 -0.000000 -10.471798 14.241423 -19.063919 -5.189112 -0.000007 0.000000 -12.281898 54.953079 18.571105 59.041289 2.273399 0.176708 -2.518002 -23.103405 -168.640936 -104.651940 0.000002 -0.000004 -20.456396 -219.952541 -26.844914 89.606672 -0.000005 -0.000014 -16.635298 99.486322 21.453762 59.600873 -1.914792 0.018105 -2.699304 39.242633 195.349161 60.305659 0.000003 -0.000003 -20.148903 -177.462672 5.605976 -110.358460 0.000000 -0.000003 -16.838308 323.606331 19.105146 -19.721183
